<mxfile host="app.diagrams.net" agent="Mozilla/5.0 (X11; Linux x86_64) AppleWebKit/537.36 (KHTML, like Gecko) Chrome/129.0.0.0 Safari/537.36" version="26.0.10">
  <diagram name="Page-1" id="soa-EswkDos1NlLR2S99">
    <mxGraphModel dx="1354" dy="714" grid="1" gridSize="10" guides="1" tooltips="1" connect="1" arrows="1" fold="1" page="1" pageScale="1" pageWidth="1000" pageHeight="700" math="0" shadow="0">
      <root>
        <mxCell id="0" />
        <mxCell id="1" parent="0" />
        <mxCell id="qNuIPhs0UhlHQLYQ4hCc-9" value="&lt;div&gt;Akshar&lt;/div&gt;Anvay" style="ellipse;whiteSpace=wrap;html=1;aspect=fixed;fontStyle=1;fillColor=#f8cecc;strokeColor=#b85450;" vertex="1" parent="1">
          <mxGeometry x="440" y="322" width="80" height="80" as="geometry" />
        </mxCell>
        <mxCell id="qNuIPhs0UhlHQLYQ4hCc-10" value="Data&amp;nbsp;&lt;div&gt;&lt;/div&gt;&lt;div&gt;Members&lt;/div&gt;" style="ellipse;whiteSpace=wrap;html=1;aspect=fixed;fontStyle=1;fillColor=#dae8fc;strokeColor=#6c8ebf;" vertex="1" parent="1">
          <mxGeometry x="600" y="242" width="80" height="80" as="geometry" />
        </mxCell>
        <mxCell id="qNuIPhs0UhlHQLYQ4hCc-11" value="&lt;div&gt;Functions&lt;/div&gt;" style="ellipse;whiteSpace=wrap;html=1;aspect=fixed;fontStyle=1;fillColor=#dae8fc;strokeColor=#6c8ebf;" vertex="1" parent="1">
          <mxGeometry x="280" y="242" width="80" height="80" as="geometry" />
        </mxCell>
        <mxCell id="qNuIPhs0UhlHQLYQ4hCc-12" value="Events" style="ellipse;whiteSpace=wrap;html=1;aspect=fixed;fontStyle=1;fillColor=#dae8fc;strokeColor=#6c8ebf;" vertex="1" parent="1">
          <mxGeometry x="440" y="472" width="80" height="80" as="geometry" />
        </mxCell>
        <mxCell id="qNuIPhs0UhlHQLYQ4hCc-16" value="" style="endArrow=none;dashed=1;html=1;dashPattern=1 3;strokeWidth=2;rounded=0;entryX=0.5;entryY=1;entryDx=0;entryDy=0;exitX=0.5;exitY=0;exitDx=0;exitDy=0;" edge="1" parent="1" source="qNuIPhs0UhlHQLYQ4hCc-12" target="qNuIPhs0UhlHQLYQ4hCc-9">
          <mxGeometry width="50" height="50" relative="1" as="geometry">
            <mxPoint x="450" y="512" as="sourcePoint" />
            <mxPoint x="500" y="462" as="targetPoint" />
            <Array as="points" />
          </mxGeometry>
        </mxCell>
        <mxCell id="qNuIPhs0UhlHQLYQ4hCc-18" value="" style="endArrow=none;dashed=1;html=1;dashPattern=1 3;strokeWidth=2;rounded=0;exitX=0.983;exitY=0.321;exitDx=0;exitDy=0;exitPerimeter=0;entryX=0.036;entryY=0.678;entryDx=0;entryDy=0;entryPerimeter=0;" edge="1" parent="1" source="qNuIPhs0UhlHQLYQ4hCc-9" target="qNuIPhs0UhlHQLYQ4hCc-10">
          <mxGeometry width="50" height="50" relative="1" as="geometry">
            <mxPoint x="490" y="432" as="sourcePoint" />
            <mxPoint x="540" y="382" as="targetPoint" />
          </mxGeometry>
        </mxCell>
        <mxCell id="qNuIPhs0UhlHQLYQ4hCc-19" value="" style="endArrow=none;dashed=1;html=1;dashPattern=1 3;strokeWidth=2;rounded=0;exitX=0.975;exitY=0.665;exitDx=0;exitDy=0;exitPerimeter=0;" edge="1" parent="1" source="qNuIPhs0UhlHQLYQ4hCc-11" target="qNuIPhs0UhlHQLYQ4hCc-9">
          <mxGeometry width="50" height="50" relative="1" as="geometry">
            <mxPoint x="420" y="342" as="sourcePoint" />
            <mxPoint x="470" y="292" as="targetPoint" />
          </mxGeometry>
        </mxCell>
        <mxCell id="qNuIPhs0UhlHQLYQ4hCc-21" value="uploadFile()" style="rounded=1;whiteSpace=wrap;html=1;fillColor=#d5e8d4;strokeColor=#82b366;" vertex="1" parent="1">
          <mxGeometry x="260" y="142" width="120" height="60" as="geometry" />
        </mxCell>
        <mxCell id="qNuIPhs0UhlHQLYQ4hCc-22" value="grantAccess()" style="rounded=1;whiteSpace=wrap;html=1;fillColor=#d5e8d4;strokeColor=#82b366;" vertex="1" parent="1">
          <mxGeometry x="120" y="252" width="120" height="60" as="geometry" />
        </mxCell>
        <mxCell id="qNuIPhs0UhlHQLYQ4hCc-23" value="getFile()" style="rounded=1;whiteSpace=wrap;html=1;fillColor=#d5e8d4;strokeColor=#82b366;" vertex="1" parent="1">
          <mxGeometry x="260" y="362" width="120" height="60" as="geometry" />
        </mxCell>
        <mxCell id="qNuIPhs0UhlHQLYQ4hCc-27" value="" style="endArrow=none;html=1;rounded=0;entryX=0;entryY=0.5;entryDx=0;entryDy=0;exitX=1;exitY=0.5;exitDx=0;exitDy=0;" edge="1" parent="1" source="qNuIPhs0UhlHQLYQ4hCc-22" target="qNuIPhs0UhlHQLYQ4hCc-11">
          <mxGeometry width="50" height="50" relative="1" as="geometry">
            <mxPoint x="500" y="382" as="sourcePoint" />
            <mxPoint x="550" y="332" as="targetPoint" />
          </mxGeometry>
        </mxCell>
        <mxCell id="qNuIPhs0UhlHQLYQ4hCc-28" value="" style="endArrow=none;html=1;rounded=0;entryX=0.5;entryY=1;entryDx=0;entryDy=0;exitX=0.5;exitY=0;exitDx=0;exitDy=0;" edge="1" parent="1" source="qNuIPhs0UhlHQLYQ4hCc-23" target="qNuIPhs0UhlHQLYQ4hCc-11">
          <mxGeometry width="50" height="50" relative="1" as="geometry">
            <mxPoint x="500" y="382" as="sourcePoint" />
            <mxPoint x="550" y="332" as="targetPoint" />
          </mxGeometry>
        </mxCell>
        <mxCell id="qNuIPhs0UhlHQLYQ4hCc-29" value="" style="endArrow=none;html=1;rounded=0;exitX=0.5;exitY=0;exitDx=0;exitDy=0;entryX=0.5;entryY=1;entryDx=0;entryDy=0;" edge="1" parent="1" source="qNuIPhs0UhlHQLYQ4hCc-11" target="qNuIPhs0UhlHQLYQ4hCc-21">
          <mxGeometry width="50" height="50" relative="1" as="geometry">
            <mxPoint x="500" y="292" as="sourcePoint" />
            <mxPoint x="550" y="242" as="targetPoint" />
          </mxGeometry>
        </mxCell>
        <mxCell id="qNuIPhs0UhlHQLYQ4hCc-30" value="FileDetails" style="rounded=1;whiteSpace=wrap;html=1;fillColor=#e1d5e7;strokeColor=#9673a6;" vertex="1" parent="1">
          <mxGeometry x="720" y="142" width="120" height="60" as="geometry" />
        </mxCell>
        <mxCell id="qNuIPhs0UhlHQLYQ4hCc-31" value="files" style="rounded=1;whiteSpace=wrap;html=1;fillColor=#e1d5e7;strokeColor=#9673a6;" vertex="1" parent="1">
          <mxGeometry x="720" y="362" width="120" height="60" as="geometry" />
        </mxCell>
        <mxCell id="qNuIPhs0UhlHQLYQ4hCc-32" value="" style="endArrow=none;html=1;rounded=0;entryX=0;entryY=1;entryDx=0;entryDy=0;exitX=1;exitY=0;exitDx=0;exitDy=0;" edge="1" parent="1" source="qNuIPhs0UhlHQLYQ4hCc-10" target="qNuIPhs0UhlHQLYQ4hCc-30">
          <mxGeometry width="50" height="50" relative="1" as="geometry">
            <mxPoint x="680" y="322" as="sourcePoint" />
            <mxPoint x="730" y="272" as="targetPoint" />
          </mxGeometry>
        </mxCell>
        <mxCell id="qNuIPhs0UhlHQLYQ4hCc-33" value="" style="endArrow=none;html=1;rounded=0;exitX=1;exitY=1;exitDx=0;exitDy=0;entryX=0;entryY=0;entryDx=0;entryDy=0;" edge="1" parent="1" source="qNuIPhs0UhlHQLYQ4hCc-10" target="qNuIPhs0UhlHQLYQ4hCc-31">
          <mxGeometry width="50" height="50" relative="1" as="geometry">
            <mxPoint x="760" y="282" as="sourcePoint" />
            <mxPoint x="810" y="232" as="targetPoint" />
          </mxGeometry>
        </mxCell>
        <mxCell id="qNuIPhs0UhlHQLYQ4hCc-35" value="FileUploaded" style="rounded=1;whiteSpace=wrap;html=1;fillColor=#ffe6cc;strokeColor=#d79b00;" vertex="1" parent="1">
          <mxGeometry x="240" y="482" width="120" height="60" as="geometry" />
        </mxCell>
        <mxCell id="qNuIPhs0UhlHQLYQ4hCc-36" value="AccessGranted" style="rounded=1;whiteSpace=wrap;html=1;fillColor=#ffe6cc;strokeColor=#d79b00;" vertex="1" parent="1">
          <mxGeometry x="600" y="482" width="120" height="60" as="geometry" />
        </mxCell>
        <mxCell id="qNuIPhs0UhlHQLYQ4hCc-37" value="" style="endArrow=none;html=1;rounded=0;exitX=1;exitY=0.5;exitDx=0;exitDy=0;entryX=0;entryY=0.5;entryDx=0;entryDy=0;" edge="1" parent="1" source="qNuIPhs0UhlHQLYQ4hCc-35" target="qNuIPhs0UhlHQLYQ4hCc-12">
          <mxGeometry width="50" height="50" relative="1" as="geometry">
            <mxPoint x="420" y="462" as="sourcePoint" />
            <mxPoint x="470" y="412" as="targetPoint" />
          </mxGeometry>
        </mxCell>
        <mxCell id="qNuIPhs0UhlHQLYQ4hCc-38" value="" style="endArrow=none;html=1;rounded=0;exitX=1;exitY=0.5;exitDx=0;exitDy=0;entryX=0;entryY=0.5;entryDx=0;entryDy=0;" edge="1" parent="1" source="qNuIPhs0UhlHQLYQ4hCc-12" target="qNuIPhs0UhlHQLYQ4hCc-36">
          <mxGeometry width="50" height="50" relative="1" as="geometry">
            <mxPoint x="510" y="472" as="sourcePoint" />
            <mxPoint x="560" y="422" as="targetPoint" />
          </mxGeometry>
        </mxCell>
        <mxCell id="qNuIPhs0UhlHQLYQ4hCc-39" value="Smart Contract Architecture&amp;nbsp;" style="rounded=1;whiteSpace=wrap;html=1;opacity=0;fontSize=25;align=center;fontStyle=1" vertex="1" parent="1">
          <mxGeometry x="260" y="50" width="430" height="60" as="geometry" />
        </mxCell>
      </root>
    </mxGraphModel>
  </diagram>
</mxfile>
